<svg width="100%" height="100%" viewBox="0 0 74 22"><g fill="var(--token-0cc1920a-14e1-4432-a586-1d3494dd17ab, rgb(12, 10, 9))"><path d="M0 21.7634H8.22488C13.1426 21.7634 15.3713 19.2352 15.3713 15.8938C15.3713 12.5376 13.1282 10.5565 11.0432 10.4234V10.3938C12.9556 9.89113 14.4942 8.45699 14.4942 5.75134C14.4942 2.54301 12.3229 0 7.80789 0H0V21.7634ZM3.24969 18.8952V11.9906H8.05233C10.6262 11.9906 12.1935 13.6761 12.1935 15.7164C12.1935 17.5349 10.9857 18.8952 7.9373 18.8952H3.24969ZM3.24969 9.34409V2.80914H7.67848C10.238 2.80914 11.4027 4.18414 11.4027 5.92876C11.4027 8.01344 9.76346 9.34409 7.62096 9.34409H3.24969Z"></path><path d="M27.354 15.1694C27.354 18.0081 25.7435 19.25 23.6873 19.25C21.5879 19.25 20.2219 17.9489 20.2219 15.4651V6.15054H17.1304V15.8495C17.1304 19.8858 19.6899 22 22.8102 22C25.1971 22 26.7069 20.7581 27.3827 19.1317H27.4402V21.7634H30.4311V6.15054H27.354V15.1694Z"></path><path d="M38.68 22C42.1166 22 44.7192 20.004 45.2944 16.9731H42.3323C41.9009 18.4368 40.4198 19.3979 38.6943 19.3979C36.1492 19.3979 34.625 17.328 34.625 14.7849H45.4813V13.9718C45.4813 9.19624 42.9074 5.91398 38.6081 5.91398C34.3087 5.91398 31.5191 9.22581 31.5191 13.9866C31.5191 18.7473 34.3231 22 38.68 22ZM34.6394 12.4637C34.7688 10.379 36.2355 8.50134 38.5793 8.50134C40.7649 8.50134 42.4042 10.1129 42.4761 12.4637H34.6394Z"></path><path d="M49.6609 12.7446C49.6609 9.90591 51.2713 8.66398 53.3132 8.66398C55.4269 8.66398 56.7929 9.96505 56.7929 12.4489V21.7634H59.8701V12.0645C59.8701 8.02823 57.325 5.91398 54.1903 5.91398C51.8177 5.91398 50.3079 7.15591 49.6321 8.78226H49.5746V6.15054H46.5693V21.7634H49.6609V12.7446Z"></path><path d="M66.3934 21.9852C68.996 21.9852 70.2758 20.8172 70.9372 19.5457H70.9948V21.7634H74V11.0591C74 8.01344 71.6562 5.91398 67.9176 5.91398C64.0928 5.91398 61.6483 8.10215 61.5045 10.9704H64.6104C64.7398 9.55108 65.9908 8.51613 67.8889 8.51613C69.8013 8.51613 70.9229 9.55108 70.9229 11.0591V11.1331C70.9229 12.2715 69.9738 12.2419 67.1268 12.5968C64.0352 12.9664 61.1306 13.75 61.1306 17.2984C61.1306 20.418 63.3738 21.9852 66.3934 21.9852ZM67.0549 19.457C65.3006 19.457 64.2222 18.6882 64.2078 17.3575C64.1934 15.7903 65.6888 15.1694 67.3281 14.9328C68.9241 14.711 70.5202 14.4449 70.9372 14.1196V15.9234C70.9372 17.8306 69.6862 19.457 67.0549 19.457Z"></path></g></svg>